# xmcd CD database file
#
# Track frame offsets:
#	150
#	18137
#	35355
#	53302
#
# Disc length: 937 seconds
#
# Revision: 0
# Processed by: cddbd v1.5.1PL2 Copyright (c) Steve Scherf et al.
# Submitted via: CDex 1.50beta8
#
DISCID=1d03a704
DTITLE=PARADISE GO!! GO!! - Argent snow
DYEAR=2005
DGENRE=JPop
TTITLE0=Argent snow
TTITLE1=HAPPY-GO-LUCKY
TTITLE2=Argent snow(instrumental)
TTITLE3=HAPPY-GO-LUCKY(instrumental)
EXTD=YEAR: 2005
EXTT0=
EXTT1=
EXTT2=
EXTT3=
PLAYORDER=
